<svg width="2075" height="814" viewBox="0 0 2075 814" fill="none" xmlns="http://www.w3.org/2000/svg">
<path d="M284.473 254.477C284.313 254.653 284.152 254.828 284.015 254.982C283.832 254.872 283.671 254.762 283.488 254.653C279.707 252.349 275.834 249.958 272.122 247.676C264.652 243.047 256.907 238.264 249.093 233.766C248.543 233.459 248.016 233.13 247.466 232.823C244.808 231.287 242.15 229.729 239.492 228.194C236.834 226.658 234.176 225.122 231.518 223.564C226.706 220.778 221.916 217.992 217.104 215.205C170.679 188.329 122.719 160.51 75.1943 133.612C55.6023 122.533 34.5667 122.314 16.0059 133.042C10.071 136.465 4.93814 140.458 0.584369 144.977C0.561454 140.304 0.53854 135.653 0.515625 131.067C0.607283 123.345 0.744771 115.622 0.951002 107.943C1.36346 92.2784 9.7502 78.9392 24.553 70.3828C41.3494 60.6855 56.7709 65.3805 66.7388 71.019C114.172 97.851 162.086 125.626 208.443 152.502C219.121 158.689 229.799 164.876 240.477 171.063C248.062 175.451 255.715 180.168 263.094 184.731C266.852 187.057 270.724 189.448 274.574 191.774C276.155 192.717 277.645 193.77 279.042 194.911C281.173 196.623 283.121 198.509 284.863 200.572C286.627 202.634 288.162 204.872 289.491 207.219C291.852 211.454 293.479 216.105 294.258 221.019C296.183 233.152 292.608 245.35 284.473 254.477Z" fill="#5466F9"/>
<path d="M0.914518 322.398C0.914518 322.223 0.914518 322.025 0.914518 321.85V322.398C0.914518 327.159 0.914518 331.92 0.914518 336.681V349.801C0.892578 349.208 0.892578 348.594 0.892578 348.001C0.914518 339.489 0.914518 330.933 0.914518 322.398Z" fill="#5466F9"/>
<path d="M0.941816 285.048C0.941816 293.187 0.941816 301.371 0.941816 309.576C0.941816 312.999 0.941816 316.443 0.941816 319.866V296.434H0.622501C0.599693 287.351 0.554077 278.224 0.50846 269.339C0.394419 247.86 0.280378 225.833 0.554077 203.915C0.64531 197.706 0.759351 191.519 0.919008 185.354C0.919008 188.777 0.919008 192.2 0.919008 195.622C0.919008 212.735 0.919008 230.177 0.919008 247.663V260.431C0.941816 268.571 0.941816 276.798 0.941816 285.048Z" fill="#5466F9"/>
<path d="M0.616922 144.991C0.573043 145.057 0.507225 145.123 0.441406 145.167C0.463346 140.472 0.507225 135.777 0.551104 131.082C0.573043 135.689 0.594983 140.34 0.616922 144.991Z" fill="#5466F9"/>
<path d="M0.943878 260.433V247.664C0.943878 241.148 0.943878 234.654 0.943878 228.138V220.218H0.624563C0.601755 214.777 0.601755 209.336 0.556138 203.939C0.28244 225.857 0.373673 247.884 0.510522 269.363C0.556138 278.248 0.601755 287.375 0.624563 296.458H0.92107V319.889C0.92107 316.467 0.92107 313.022 0.92107 309.6C0.92107 301.394 0.92107 293.211 0.92107 285.071C0.943878 276.8 0.943878 268.573 0.943878 260.433Z" fill="#5466F9"/>
<path d="M0.941816 260.423C0.941816 268.562 0.941816 276.768 0.941816 285.039C0.941816 293.178 0.941816 301.362 0.941816 309.567C0.941816 309.567 0.941816 309.567 0.941816 309.545V296.425H0.622501C0.599693 287.342 0.554077 278.216 0.50846 269.33C0.394419 247.851 0.280378 225.824 0.554077 203.907C0.64531 197.698 0.759351 191.511 0.919008 185.346C0.919008 188.768 0.919008 192.191 0.919008 195.613C0.919008 212.726 0.919008 230.168 0.919008 247.654V260.423H0.941816Z" fill="#5466F9"/>
<path d="M0.616922 144.989C0.573043 145.055 0.507225 145.121 0.441406 145.165C0.463346 140.47 0.507225 135.775 0.551104 131.08C0.573043 135.687 0.594983 140.338 0.616922 144.989Z" fill="#5466F9"/>
<path d="M289.51 182.628C287.608 181.115 285.592 179.71 283.46 178.416C279.68 176.112 275.807 173.721 272.095 171.417C264.625 166.788 256.88 162.005 249.066 157.508C238.387 151.321 227.709 145.134 217.054 138.947C170.675 112.071 122.692 84.2736 75.1898 57.3977C55.5979 46.2963 34.5623 46.0989 16.0015 56.8273C10.0437 60.2718 4.84205 64.3087 0.488281 68.8501C0.57994 60.2718 0.717427 51.6935 0.946573 43.159C1.35904 27.4942 9.74577 14.155 24.5486 5.59857C41.345 -4.09869 56.7665 0.596366 66.7343 6.23482C114.145 33.0668 162.059 60.8422 208.415 87.7181C219.093 93.905 229.772 100.092 240.473 106.279C248.057 110.667 255.711 115.384 263.089 119.947C266.847 122.273 270.72 124.664 274.57 126.99C285.179 133.44 292.351 144.081 294.253 156.235C295.72 165.472 294.001 174.708 289.51 182.628Z" fill="#5466F9"/>
<path d="M0.898261 283.164C0.92107 272.655 0.92107 262.102 0.92107 251.549V247.644C0.92107 230.158 0.92107 212.716 0.92107 195.604C0.92107 192.181 0.92107 188.759 0.92107 185.336C0.761412 191.501 0.647371 197.688 0.556138 203.897C0.28244 225.814 0.373673 247.842 0.510522 269.32C0.556138 278.206 0.601755 287.333 0.624563 296.416H0.92107V319.847C0.92107 316.424 0.92107 312.98 0.92107 309.557C0.92107 301.352 0.92107 293.169 0.92107 285.029C0.92107 284.415 0.898261 283.8 0.898261 283.164ZM0.92107 322.37V321.822C0.92107 321.997 0.92107 322.173 0.92107 322.37ZM0.53333 131.08C0.487714 135.775 0.442097 140.47 0.419289 145.165C0.487714 145.099 0.53333 145.055 0.601755 144.989C0.578947 140.316 0.556138 135.665 0.53333 131.08Z" fill="#5466F9"/>
<path d="M0.969898 260.507V247.738C0.969898 230.252 0.969898 212.81 0.969898 195.697C0.969898 192.275 0.969898 188.852 0.969898 185.43C0.81024 191.595 0.696199 197.782 0.604966 203.991C0.331268 225.908 0.422501 247.935 0.55935 269.414C0.604966 278.3 0.650583 287.426 0.673391 296.509H0.969898V319.941C0.969898 316.518 0.969898 313.074 0.969898 309.651C0.969898 301.446 0.969898 293.262 0.969898 285.123C0.969898 276.874 0.969898 268.646 0.969898 260.507ZM0.947089 322.464C0.947089 331.02 0.924281 339.555 0.924281 348.067C0.924281 348.66 0.947089 349.274 0.947089 349.866V336.746C0.969898 331.986 0.947089 327.225 0.947089 322.464V321.915C0.947089 322.091 0.947089 322.266 0.947089 322.464Z" fill="#5466F9"/>
<path d="M0.936002 322.446C0.936002 331.002 0.914062 339.537 0.914062 348.049C0.914062 348.642 0.936002 349.256 0.936002 349.848V336.729C0.957942 331.968 0.936002 327.207 0.936002 322.446V321.897C0.936002 322.073 0.936002 322.248 0.936002 322.446Z" fill="#5466F9"/>
<path d="M284.482 330.788C281.114 334.584 277.356 337.743 273.644 339.915C194.588 386.405 129.717 424.382 69.4518 459.441C48.1183 471.859 21.7665 466.352 8.10941 446.651C3.25152 439.63 0.891313 432.324 0.914228 424.272C0.937142 411.986 0.937142 399.59 0.937142 387.238C0.937142 382.96 0.937142 378.704 0.937142 374.448C0.937142 366.22 0.937142 357.993 0.937142 349.854V336.734C0.937142 331.973 0.937142 327.212 0.937142 322.451V321.617C0.937142 321.069 0.937142 320.499 0.937142 319.95C0.937142 316.527 0.937142 313.083 0.937142 309.66C0.937142 301.455 0.937142 293.272 0.937142 285.132C0.937142 276.861 0.937142 268.655 0.937142 260.516V247.747C0.937142 230.261 0.937142 212.819 0.937142 195.707C0.937142 192.284 0.937142 188.862 0.937142 185.439C0.937142 185.044 0.960057 184.649 0.960057 184.276C1.37252 168.611 9.75926 155.272 24.5621 146.716C41.3585 137.019 56.78 141.714 66.7478 147.352C114.181 174.206 162.118 201.981 208.497 228.857C210.858 230.217 213.218 231.6 215.601 232.96C218.259 234.496 220.917 236.053 223.575 237.589C226.233 239.125 228.891 240.683 231.55 242.218C234.528 243.952 237.507 245.663 240.486 247.396C248.071 251.784 255.724 256.523 263.103 261.064C265.486 262.556 267.938 264.048 270.39 265.562C271.788 266.418 273.162 267.273 274.56 268.107C275.729 268.831 276.875 269.577 277.952 270.411C280.197 272.078 282.26 273.987 284.116 276.027C289.432 281.951 292.984 289.322 294.244 297.33C296.192 309.463 292.617 321.639 284.482 330.788Z" fill="#5466F9"/>
<path d="M933.309 357.819C945.797 363.677 957.896 369.359 970.682 375.371C962.8 392.835 951.595 406.832 936.769 418.043C910.509 437.92 880.559 447.332 846.944 447.618C814.199 447.903 784.501 439.851 757.898 421.685C728.567 401.632 709.296 374.888 698.595 341.891C693.393 325.875 691.285 309.465 691.422 293.229C691.72 256.612 703.2 223.045 727.444 194.041C749.969 167.077 778.131 148.385 814.176 142.746C867.727 134.343 913.854 147.792 949.28 188.402C962.296 203.343 970.064 221.268 975.311 239.982C980.719 259.289 983.033 279.035 982.163 299.065C982.048 301.72 981.452 304.353 980.971 307.819C977.03 308.192 973.57 308.784 970.11 308.784C926.984 308.85 883.882 308.894 840.757 308.741C835.784 308.719 830.697 308.017 825.885 306.876C809.341 302.97 800.106 287.832 804.162 270.039C825.633 269.425 847.448 269.864 869.262 269.776C891.1 269.688 912.938 269.754 935.394 269.754C936.058 261.834 933.927 255.318 932.048 248.912C925.701 227.126 913.946 208.784 894.468 195.248C884.638 188.424 873.708 184.3 862.067 182.018C833.172 176.336 806.11 180.943 782.737 198.495C754.712 219.535 739.176 247.354 738.351 281.777C737.939 298.89 737.687 316.003 742.453 332.896C753.796 373.177 793.667 407.995 842.75 407.797C863.763 407.71 883.309 404.024 901.091 392.922C909.661 387.569 916.833 381.053 922.653 373.067C926.045 368.262 929.367 363.436 933.309 357.819Z" fill="#41415A"/>
<path d="M1762.45 299.458C1761.05 273.174 1766.64 248.185 1779.55 224.995C1801.25 185.987 1834.27 159.725 1879.48 149.633C1941.41 135.789 1994.74 151.542 2036.85 197.285C2057.64 219.839 2069.55 246.956 2073.52 277.189C2079.25 320.936 2068.41 360.493 2040.66 395.311C2017.17 424.776 1986.1 443.052 1947.35 449.655C1910.94 455.842 1876.54 451.498 1844.26 434.583C1800.76 411.788 1774.18 376.751 1764.47 330.151C1763.69 326.465 1762.73 322.757 1762.54 319.006C1762.22 312.512 1762.45 305.974 1762.45 299.458ZM2027.73 299.765C2027.92 277.562 2022.39 256.698 2010.59 237.808C1987.79 201.3 1954.96 181.906 1909.2 184.912C1874 187.237 1846.78 202.726 1828.31 230.743C1802.87 269.291 1801.2 310.296 1820.68 351.542C1833.94 379.669 1855.81 399.765 1887.5 408.585C1900.97 412.336 1914.74 413.17 1928.86 412.095C1945.79 410.823 1961.3 406.106 1975.05 396.979C2010.46 373.503 2026.73 340.353 2027.73 299.765Z" fill="#41415A"/>
<path d="M1066.34 446.414C1066.34 347.972 1066.34 249.902 1066.34 151.92C1074.22 149.529 1096.63 149.178 1108.55 151.328C1110.88 159.095 1109.39 167.322 1109.65 175.418C1109.9 183.513 1109.69 191.609 1109.69 201.92C1113.73 196.918 1116.41 193.825 1118.79 190.556C1135.79 167.234 1158.82 151.723 1187.97 147.028C1220.07 141.85 1251.63 144.154 1279.95 162.429C1300.25 175.505 1312.53 194.176 1320.37 215.611C1325.71 230.222 1327.66 245.514 1327.56 261.179C1327.22 319.231 1327.43 377.283 1327.43 435.335C1327.43 438.713 1327.43 442.092 1327.43 445.493C1319.11 449.091 1312.46 446.239 1306.35 442.904C1288.56 433.229 1282.03 417.454 1281.9 398.805C1281.69 371.666 1281.85 344.527 1281.83 317.388C1281.8 299.858 1281.85 282.351 1281.69 264.821C1281.55 250.538 1278.21 237.024 1271.17 224.299C1258.77 201.855 1239.46 189.985 1213.15 187.002C1200.41 185.554 1188.01 185.707 1175.96 189.174C1141.38 199.178 1121.88 222.675 1113.84 255.453C1111.98 263.044 1111.55 271.074 1111.5 278.928C1111.27 319.472 1111.27 359.995 1111.46 400.539C1111.53 416.818 1105.2 429.938 1091.86 439.876C1084.65 445.251 1076.56 448.455 1066.34 446.414Z" fill="#41415A"/>
<path d="M1664.55 341.627C1678.18 346.102 1691.01 350.293 1704.95 354.878C1704.12 358.849 1704.03 362.25 1702.7 365.146C1682.83 408.498 1649.03 437.173 1601.01 448.231C1560.68 457.533 1521.08 453.145 1484.62 432.895C1442.41 409.442 1419.27 373.307 1410.91 328.046C1405.43 298.384 1407.67 269.029 1419.34 241.034C1438.88 194.149 1473.76 162.557 1525.36 149.656C1567.64 139.081 1607.93 144.983 1645.41 166.418C1674.72 183.18 1697.11 211.46 1703.64 240.025C1700.94 240.924 1698.14 242.438 1695.21 242.745C1678.27 244.479 1663.2 240.639 1651.03 228.551C1643.1 220.674 1635.74 212.052 1626.83 205.339C1578.8 169.094 1501.88 180.942 1470.16 238.665C1460.95 255.426 1455.2 273.197 1455.02 291.78C1454.58 333.97 1467.8 370.894 1505.63 396.388C1519.66 405.844 1535.36 411.087 1552.77 412.052C1568.26 412.908 1583.36 412.14 1598.39 408.125C1617.85 402.948 1631.57 390.64 1642.89 375.765C1650.02 366.418 1655.34 355.822 1661.48 345.795C1662.21 344.654 1663.1 343.601 1664.55 341.627Z" fill="#41415A"/>
<path d="M412.79 13.0728C441.136 15.1131 458.574 33.3887 459.834 61.6907C459.971 64.7842 459.88 67.8776 459.88 70.9492C459.88 177.027 459.88 283.126 459.88 389.203C459.88 393.284 459.88 397.387 459.88 402.85C464.715 403.047 468.839 403.354 472.964 403.354C533.665 403.376 594.365 403.376 655.066 403.376C659.26 403.376 663.453 403.376 668.907 403.376C669.25 418.624 669.25 432.424 668.907 446.817C582.381 446.817 497.437 446.817 412.653 446.817C409.743 437.668 409.857 21.695 412.79 13.0728Z" fill="#41415A"/>
<path d="M123.05 766.652C120.008 768.477 115.952 769.288 110.679 769.288C106.218 769.288 102.567 768.072 99.9309 765.638C97.2945 763.204 96.0778 758.946 96.0778 753.267C91.2106 758.946 85.7351 763.204 79.4483 765.638C73.1616 768.072 66.4693 769.288 59.1686 769.288C54.3014 769.288 49.8399 768.883 45.7839 767.869C41.5252 766.855 37.8748 765.232 34.6301 762.799C31.3853 760.365 28.9517 757.323 27.1265 753.673C25.3014 750.023 24.4902 745.358 24.4902 740.086C24.4902 734.204 25.5042 729.337 27.5321 725.484C29.5601 721.834 32.1965 718.792 35.4412 716.358C38.686 713.925 42.5392 712.099 46.7979 710.883C51.0567 709.666 55.5182 708.652 59.9798 707.841C64.6441 707.03 69.1057 706.218 73.3644 705.813C77.6232 705.407 81.4763 704.596 84.7211 703.785C87.9658 702.974 90.3994 701.554 92.4274 699.932C94.2526 698.309 95.2666 695.673 95.2666 692.428C95.2666 688.778 94.4554 685.736 93.0358 683.302C91.6162 681.071 89.791 679.246 87.5602 678.029C85.3295 676.813 82.8959 676.001 80.0567 675.596C77.2176 675.19 74.5812 674.987 71.9448 674.987C64.6441 674.987 58.5602 676.407 53.693 679.246C48.8259 682.085 46.1895 687.155 45.7839 694.862H28.5461C28.7489 688.372 30.1685 682.897 32.6021 678.435C35.0357 673.973 38.2804 670.526 42.3364 667.687C46.3923 664.848 51.0567 663.022 56.3294 661.603C61.6021 660.386 67.0777 659.778 72.9588 659.778C77.6232 659.778 82.2875 660.183 86.9519 660.792C91.6162 661.603 95.875 663.022 99.7281 665.05C103.378 667.078 106.42 670.12 108.854 673.771C111.085 677.624 112.302 682.491 112.302 688.575V742.519C112.302 746.575 112.504 749.617 112.91 751.442C113.316 753.47 114.938 754.281 117.777 754.281C119.197 754.281 121.022 754.079 123.05 753.267V766.652ZM95.0638 712.911C92.833 714.533 89.9938 715.75 86.5463 716.561C82.8959 717.372 79.2455 717.981 75.3924 718.386C71.5392 718.792 67.6861 719.4 63.8329 720.009C59.777 720.617 56.3294 721.631 53.2874 722.848C50.0427 724.267 47.6091 726.295 45.5811 728.729C43.5532 731.162 42.742 734.61 42.742 738.869C42.742 741.708 43.1476 744.141 44.3643 746.169C45.5811 748.197 47.0007 749.617 48.8259 750.834C50.6511 752.051 52.8818 753.065 55.3154 753.47C57.749 754.079 60.3854 754.281 63.0217 754.281C68.7001 754.281 73.5672 753.673 77.6232 752.051C81.6791 750.428 84.9239 748.603 87.5602 746.169C89.9938 743.736 91.819 741.302 93.2386 738.463C94.4554 735.624 95.0638 732.988 95.0638 730.554V712.911ZM196.144 662.211H213.382V676.407H213.788C216.627 670.729 221.088 666.47 227.172 663.834C233.256 661.197 239.948 659.778 247.249 659.778C255.361 659.778 262.256 661.4 268.34 664.239C274.424 667.281 279.291 671.337 283.347 676.407C287.403 681.477 290.445 687.358 292.473 693.848C294.501 700.54 295.515 707.638 295.515 714.939C295.515 722.442 294.501 729.54 292.473 736.03C290.445 742.722 287.606 748.603 283.55 753.47C279.494 758.337 274.627 762.19 268.543 765.03C262.459 767.869 255.564 769.288 247.655 769.288C245.018 769.288 242.179 769.086 238.934 768.477C235.69 768.072 232.648 767.058 229.606 765.841C226.361 764.624 223.522 763.002 220.683 760.974C217.844 758.946 215.613 756.309 213.788 753.065H213.382V807.009H196.144V662.211ZM277.263 713.722C277.263 708.855 276.452 704.19 275.235 699.526C274.018 694.862 271.99 690.603 269.354 686.953C266.718 683.505 263.27 680.463 259.214 678.232C255.158 676.204 250.291 675.19 244.816 674.987C238.934 674.987 234.067 676.204 230.011 678.435C225.955 680.869 222.508 683.911 220.074 687.561C217.438 691.211 215.613 695.47 214.396 700.134C213.179 705.002 212.774 709.666 212.774 714.533C212.774 719.806 213.382 724.673 214.599 729.54C215.816 734.407 217.641 738.463 220.277 742.114C222.913 745.764 226.361 748.806 230.62 751.037C234.676 753.267 239.746 754.281 245.83 754.281C251.711 754.281 256.578 753.267 260.634 750.834C264.69 748.603 267.732 745.561 270.368 741.708C272.802 738.058 274.424 733.596 275.641 728.729C276.655 723.862 277.263 718.995 277.263 713.722ZM315.14 662.211H331.364V684.316H331.77C335.826 675.799 341.099 669.512 347.182 665.456C353.266 661.4 360.973 659.575 370.301 659.778V678.029C363.406 678.029 357.525 679.043 352.658 680.869C347.791 682.897 343.735 685.533 340.896 689.183C337.854 692.834 335.623 697.295 334.406 702.568C332.987 707.841 332.378 713.722 332.378 720.414V767.058H315.14V662.211ZM392.291 714.736C392.291 721.225 393.102 726.904 394.724 731.771C396.347 736.638 398.78 740.897 401.822 744.141C404.661 747.386 408.109 750.023 412.165 751.645C416.221 753.47 420.48 754.281 424.941 754.281C429.403 754.281 433.459 753.47 437.515 751.645C441.571 750.023 445.018 747.386 448.06 744.141C450.899 740.897 453.333 736.638 454.955 731.771C456.578 726.904 457.592 721.225 457.592 714.736C457.592 708.449 456.578 702.771 454.955 697.904C453.333 693.036 450.899 688.778 448.06 685.33C445.018 682.085 441.571 679.449 437.515 677.624C433.459 676.001 429.403 675.19 424.941 674.987C420.48 674.987 416.221 676.001 412.165 677.624C408.109 679.449 404.661 682.085 401.822 685.33C398.78 688.778 396.347 693.036 394.724 697.904C393.102 702.771 392.291 708.449 392.291 714.736ZM374.039 714.736C374.039 707.03 375.053 699.932 377.284 693.239C379.312 686.547 382.556 680.666 387.018 675.799C391.277 670.932 396.549 666.876 403.039 664.036C409.326 661.197 416.626 659.778 424.941 659.778C433.256 659.778 440.557 661.197 446.843 664.036C453.13 666.876 458.403 670.932 462.864 675.799C467.123 680.666 470.368 686.547 472.599 693.239C474.627 699.932 475.843 707.03 475.843 714.736C475.843 722.442 474.627 729.743 472.599 736.232C470.368 742.925 467.123 748.806 462.864 753.673C458.403 758.54 453.13 762.393 446.843 765.232C440.557 768.072 433.256 769.288 424.941 769.288C416.626 769.288 409.326 768.072 403.039 765.232C396.549 762.393 391.277 758.54 387.018 753.673C382.556 748.806 379.312 742.925 377.284 736.232C375.053 729.743 374.039 722.442 374.039 714.736ZM508.741 715.547C508.741 720.414 509.349 725.281 510.566 729.946C511.783 734.61 513.811 738.666 516.447 742.316C519.084 745.967 522.531 749.009 526.587 751.037C530.643 753.267 535.51 754.281 541.189 754.281C546.867 754.281 551.937 753.267 555.993 750.834C559.846 748.603 563.294 745.561 565.93 741.911C568.363 738.26 570.189 734.002 571.405 729.134C572.622 724.47 573.028 719.603 573.231 714.736C573.231 709.666 572.622 704.799 571.405 699.932C570.189 695.064 568.161 690.806 565.524 687.155C562.888 683.505 559.44 680.666 555.384 678.435C551.126 676.204 546.056 674.987 540.175 674.987C534.293 674.987 529.426 676.204 525.37 678.435C521.314 680.869 518.07 683.911 515.636 687.561C513.202 691.414 511.377 695.673 510.363 700.54C509.147 705.407 508.741 710.477 508.741 715.547ZM589.86 767.058H572.622V752.862H572.217C569.377 758.743 564.916 763.002 558.832 765.435C552.748 768.072 546.056 769.288 538.755 769.288C530.643 769.288 523.545 767.869 517.461 764.827C511.377 761.988 506.51 757.932 502.454 752.862C498.398 747.995 495.559 742.114 493.531 735.421C491.503 728.932 490.489 721.834 490.489 714.33C490.489 707.03 491.3 699.932 493.328 693.239C495.356 686.75 498.195 680.869 502.251 676.001C506.307 671.134 511.174 667.078 517.258 664.239C523.342 661.4 530.237 659.98 538.349 659.778C540.986 659.778 543.825 660.183 547.07 660.589C550.112 661.197 553.154 662.211 556.398 663.428C559.44 664.645 562.28 666.47 565.119 668.498C567.958 670.526 570.189 673.162 572.217 676.204H572.622V622.26H589.86V767.058ZM703.178 767.058H686.954V750.428H686.549C682.898 756.918 678.234 761.785 672.556 764.827C666.877 767.869 660.185 769.288 652.479 769.288C645.583 769.288 639.702 768.477 635.241 766.652C630.576 764.827 626.926 762.19 624.087 758.743C621.248 755.498 619.22 751.442 618.003 746.778C616.786 742.114 616.381 736.841 616.381 731.162V662.211H633.618V733.19C633.618 739.68 635.444 744.953 639.297 748.603C642.947 752.456 648.22 754.281 654.912 754.281C660.185 754.281 664.646 753.47 668.5 751.848C672.353 750.225 675.597 747.995 678.234 744.953C680.667 742.114 682.695 738.666 683.912 734.61C685.129 730.554 685.94 726.295 685.94 721.428V662.211H703.178V767.058ZM800.25 695.876C798.83 689.386 795.991 684.113 791.732 680.463C787.271 676.813 781.593 674.987 774.292 674.987C768.005 674.987 762.732 676.204 758.676 678.435C754.418 680.869 750.97 683.911 748.536 687.561C746.103 691.414 744.278 695.876 743.264 700.743C742.047 705.61 741.641 710.68 741.641 715.953C741.641 720.82 742.047 725.687 743.264 730.148C744.481 734.813 746.306 738.869 748.739 742.519C751.173 746.169 754.215 749.009 758.271 751.037C762.124 753.267 766.788 754.281 772.264 754.281C780.781 754.281 787.271 752.051 792.138 747.589C797.005 743.127 799.844 736.841 801.061 728.729H818.705C816.677 741.708 811.809 751.848 804.103 758.743C796.397 765.841 785.851 769.288 772.467 769.288C764.355 769.288 757.257 768.072 751.173 765.435C745.089 763.002 739.816 759.351 735.76 754.484C731.704 749.82 728.46 744.141 726.432 737.652C724.404 731.162 723.39 723.862 723.39 715.953C723.39 708.246 724.404 700.946 726.432 694.05C728.46 687.155 731.501 681.274 735.557 676.204C739.613 671.134 744.886 667.078 751.173 664.239C757.257 661.4 764.558 659.98 772.872 659.778C778.753 659.778 784.229 660.589 789.502 662.008C794.774 663.428 799.236 665.659 803.292 668.498C807.348 671.54 810.593 675.393 813.229 679.855C815.663 684.316 817.285 689.792 818.096 695.876H800.25ZM861.923 662.211H882.811V677.421H861.923V742.519C861.923 744.547 861.923 746.169 862.328 747.386C862.734 748.603 863.342 749.617 864.356 750.225C865.167 751.037 866.587 751.442 868.209 751.645C869.832 751.848 872.062 751.848 874.902 751.848H882.811V767.058H869.629C865.167 767.058 861.314 766.855 858.069 766.246C854.825 765.638 852.391 764.421 850.363 762.799C848.335 761.176 846.916 758.946 846.104 755.904C845.09 753.065 844.685 749.009 844.685 744.141V677.421H826.839V662.211H844.685V630.778H861.923V662.211ZM970.977 714.736C970.977 721.225 971.788 726.904 973.411 731.771C975.033 736.638 977.467 740.897 980.509 744.141C983.348 747.386 986.795 750.023 990.851 751.645C994.907 753.47 999.166 754.281 1003.63 754.281C1008.09 754.281 1012.15 753.47 1016.2 751.645C1020.26 750.023 1023.7 747.386 1026.75 744.141C1029.59 740.897 1032.02 736.638 1033.64 731.771C1035.26 726.904 1036.28 721.225 1036.28 714.736C1036.28 708.449 1035.26 702.771 1033.64 697.904C1032.02 693.036 1029.59 688.778 1026.75 685.33C1023.7 682.085 1020.26 679.449 1016.2 677.624C1012.15 676.001 1008.09 675.19 1003.63 674.987C999.166 674.987 994.907 676.001 990.851 677.624C986.795 679.449 983.348 682.085 980.509 685.33C977.467 688.778 975.033 693.036 973.411 697.904C971.788 702.771 970.977 708.449 970.977 714.736ZM952.725 714.736C952.725 707.03 953.739 699.932 955.97 693.239C957.998 686.547 961.243 680.666 965.704 675.799C969.963 670.932 975.236 666.876 981.725 664.036C988.012 661.197 995.313 659.778 1003.63 659.778C1011.94 659.778 1019.24 661.197 1025.53 664.036C1031.82 666.876 1037.09 670.932 1041.55 675.799C1045.81 680.666 1049.05 686.547 1051.28 693.239C1053.31 699.932 1054.53 707.03 1054.53 714.736C1054.53 722.442 1053.31 729.743 1051.28 736.232C1049.05 742.925 1045.81 748.806 1041.55 753.673C1037.09 758.54 1031.82 762.393 1025.53 765.232C1019.24 768.072 1011.94 769.288 1003.63 769.288C995.313 769.288 988.012 768.072 981.725 765.232C975.236 762.393 969.963 758.54 965.704 753.673C961.243 748.806 957.998 742.925 955.97 736.232C953.739 729.743 952.725 722.442 952.725 714.736ZM1081.95 677.421H1064.31V662.211H1081.95V646.596C1081.95 638.078 1084.39 631.792 1089.25 627.33C1094.12 622.868 1101.42 620.638 1110.95 620.638C1112.57 620.638 1114.4 620.84 1116.43 621.043C1118.46 621.449 1120.48 621.854 1122.11 622.26V637.267C1120.48 636.862 1118.86 636.456 1117.24 636.253C1115.41 636.05 1113.79 635.848 1112.37 635.848C1108.11 635.848 1104.87 636.659 1102.64 638.281C1100.2 639.903 1099.19 643.148 1099.19 647.61V662.211H1119.47V677.421H1099.19V767.058H1081.95V677.421ZM1213.41 684.519H1251.94C1262.89 684.519 1270.6 682.694 1275.47 678.841C1280.33 674.987 1282.77 669.106 1282.77 661.4C1282.77 656.33 1281.95 652.274 1280.33 649.232C1278.71 646.393 1276.48 643.959 1273.64 642.337C1270.8 640.917 1267.35 639.701 1263.7 639.295C1260.05 638.889 1256 638.687 1251.94 638.484H1213.41V684.519ZM1194.14 622.26H1246.67C1249.71 622.26 1252.95 622.463 1256.6 622.463C1260.26 622.463 1263.7 622.666 1267.35 623.071C1270.8 623.477 1274.05 623.882 1277.09 624.491C1280.13 625.302 1282.77 626.316 1285 627.533C1289.66 630.372 1293.72 634.428 1296.96 639.295C1300.21 644.365 1301.83 650.449 1302.03 657.75C1302.03 665.456 1300 672.148 1296.35 677.827C1292.7 683.505 1287.43 687.561 1280.54 690.197V690.603C1289.26 692.631 1296.15 696.687 1301.02 702.771C1305.68 709.057 1307.91 716.561 1308.12 725.484C1308.12 730.757 1307.1 736.03 1305.28 740.897C1303.25 745.967 1300.41 750.428 1296.76 754.281C1293.11 758.135 1288.44 761.176 1282.97 763.61C1277.49 766.044 1271.21 767.058 1264.11 767.058H1194.14V622.26ZM1213.41 750.834H1261.67C1270.19 750.834 1276.68 748.603 1281.55 743.939C1286.42 739.477 1288.85 732.988 1288.85 724.876C1288.85 720.211 1287.84 716.358 1286.21 713.113C1284.39 710.071 1281.95 707.638 1279.12 705.813C1276.28 703.988 1272.83 702.771 1269.18 701.96C1265.33 701.148 1261.47 700.946 1257.42 700.743H1213.41V750.834ZM1329.52 662.211H1345.75V684.316H1346.15C1350.21 675.799 1355.48 669.512 1361.57 665.456C1367.65 661.4 1375.36 659.575 1384.69 659.778V678.029C1377.79 678.029 1371.91 679.043 1367.04 680.869C1362.18 682.897 1358.12 685.533 1355.28 689.183C1352.24 692.834 1350.01 697.295 1348.79 702.568C1347.37 707.841 1346.76 713.722 1346.76 720.414V767.058H1329.52V662.211ZM1406.68 714.736C1406.68 721.225 1407.49 726.904 1409.11 731.771C1410.73 736.638 1413.16 740.897 1416.21 744.141C1419.05 747.386 1422.49 750.023 1426.55 751.645C1430.61 753.47 1434.86 754.281 1439.33 754.281C1443.79 754.281 1447.84 753.47 1451.9 751.645C1455.96 750.023 1459.4 747.386 1462.44 744.141C1465.28 740.897 1467.72 736.638 1469.34 731.771C1470.96 726.904 1471.98 721.225 1471.98 714.736C1471.98 708.449 1470.96 702.771 1469.34 697.904C1467.72 693.036 1465.28 688.778 1462.44 685.33C1459.4 682.085 1455.96 679.449 1451.9 677.624C1447.84 676.001 1443.79 675.19 1439.33 674.987C1434.86 674.987 1430.61 676.001 1426.55 677.624C1422.49 679.449 1419.05 682.085 1416.21 685.33C1413.16 688.778 1410.73 693.036 1409.11 697.904C1407.49 702.771 1406.68 708.449 1406.68 714.736ZM1388.42 714.736C1388.42 707.03 1389.44 699.932 1391.67 693.239C1393.7 686.547 1396.94 680.666 1401.4 675.799C1405.66 670.932 1410.93 666.876 1417.42 664.036C1423.71 661.197 1431.01 659.778 1439.33 659.778C1447.64 659.778 1454.94 661.197 1461.23 664.036C1467.51 666.876 1472.79 670.932 1477.25 675.799C1481.51 680.666 1484.75 686.547 1486.98 693.239C1489.01 699.932 1490.23 707.03 1490.23 714.736C1490.23 722.442 1489.01 729.743 1486.98 736.232C1484.75 742.925 1481.51 748.806 1477.25 753.673C1472.79 758.54 1467.51 762.393 1461.23 765.232C1454.94 768.072 1447.64 769.288 1439.33 769.288C1431.01 769.288 1423.71 768.072 1417.42 765.232C1410.93 762.393 1405.66 758.54 1401.4 753.673C1396.94 748.806 1393.7 742.925 1391.67 736.232C1389.44 729.743 1388.42 722.442 1388.42 714.736ZM1603.43 766.652C1600.39 768.477 1596.34 769.288 1591.06 769.288C1586.6 769.288 1582.95 768.072 1580.31 765.638C1577.68 763.204 1576.46 758.946 1576.46 753.267C1571.59 758.946 1566.12 763.204 1559.83 765.638C1553.55 768.072 1546.85 769.288 1539.55 769.288C1534.68 769.288 1530.22 768.883 1526.17 767.869C1521.91 766.855 1518.26 765.232 1515.01 762.799C1511.77 760.365 1509.34 757.323 1507.51 753.673C1505.68 750.023 1504.87 745.358 1504.87 740.086C1504.87 734.204 1505.89 729.337 1507.92 725.484C1509.94 721.834 1512.58 718.792 1515.82 716.358C1519.07 713.925 1522.92 712.099 1527.18 710.883C1531.44 709.666 1535.9 708.652 1540.36 707.841C1545.03 707.03 1549.49 706.218 1553.75 705.813C1558.01 705.407 1561.86 704.596 1565.1 703.785C1568.35 702.974 1570.78 701.554 1572.81 699.932C1574.64 698.309 1575.65 695.673 1575.65 692.428C1575.65 688.778 1574.84 685.736 1573.42 683.302C1572 681.071 1570.17 679.246 1567.94 678.029C1565.71 676.813 1563.28 676.001 1560.44 675.596C1557.6 675.19 1554.96 674.987 1552.33 674.987C1545.03 674.987 1538.94 676.407 1534.08 679.246C1529.21 682.085 1526.57 687.155 1526.17 694.862H1508.93C1509.13 688.372 1510.55 682.897 1512.99 678.435C1515.42 673.973 1518.66 670.526 1522.72 667.687C1526.78 664.848 1531.44 663.022 1536.71 661.603C1541.99 660.386 1547.46 659.778 1553.34 659.778C1558.01 659.778 1562.67 660.183 1567.34 660.792C1572 661.603 1576.26 663.022 1580.11 665.05C1583.76 667.078 1586.8 670.12 1589.24 673.771C1591.47 677.624 1592.69 682.491 1592.69 688.575V742.519C1592.69 746.575 1592.89 749.617 1593.29 751.442C1593.7 753.47 1595.32 754.281 1598.16 754.281C1599.58 754.281 1601.41 754.079 1603.43 753.267V766.652ZM1575.45 712.911C1573.22 714.533 1570.38 715.75 1566.93 716.561C1563.28 717.372 1559.63 717.981 1555.78 718.386C1551.92 718.792 1548.07 719.4 1544.22 720.009C1540.16 720.617 1536.71 721.631 1533.67 722.848C1530.43 724.267 1527.99 726.295 1525.96 728.729C1523.94 731.162 1523.13 734.61 1523.13 738.869C1523.13 741.708 1523.53 744.141 1524.75 746.169C1525.96 748.197 1527.38 749.617 1529.21 750.834C1531.03 752.051 1533.27 753.065 1535.7 753.47C1538.13 754.079 1540.77 754.281 1543.41 754.281C1549.08 754.281 1553.95 753.673 1558.01 752.051C1562.06 750.428 1565.31 748.603 1567.94 746.169C1570.38 743.736 1572.2 741.302 1573.62 738.463C1574.84 735.624 1575.45 732.988 1575.45 730.554V712.911ZM1632.05 715.547C1632.05 720.414 1632.66 725.281 1633.88 729.946C1635.09 734.61 1637.12 738.666 1639.76 742.316C1642.39 745.967 1645.84 749.009 1649.9 751.037C1653.95 753.267 1658.82 754.281 1664.5 754.281C1670.18 754.281 1675.25 753.267 1679.3 750.834C1683.15 748.603 1686.6 745.561 1689.24 741.911C1691.67 738.26 1693.5 734.002 1694.71 729.134C1695.93 724.47 1696.34 719.603 1696.54 714.736C1696.54 709.666 1695.93 704.799 1694.71 699.932C1693.5 695.064 1691.47 690.806 1688.83 687.155C1686.2 683.505 1682.75 680.666 1678.69 678.435C1674.43 676.204 1669.36 674.987 1663.48 674.987C1657.6 674.987 1652.74 676.204 1648.68 678.435C1644.62 680.869 1641.38 683.911 1638.95 687.561C1636.51 691.414 1634.69 695.673 1633.67 700.54C1632.46 705.407 1632.05 710.477 1632.05 715.547ZM1713.17 767.058H1695.93V752.862H1695.53C1692.69 758.743 1688.22 763.002 1682.14 765.435C1676.06 768.072 1669.36 769.288 1662.06 769.288C1653.95 769.288 1646.85 767.869 1640.77 764.827C1634.69 761.988 1629.82 757.932 1625.76 752.862C1621.71 747.995 1618.87 742.114 1616.84 735.421C1614.81 728.932 1613.8 721.834 1613.8 714.33C1613.8 707.03 1614.61 699.932 1616.64 693.239C1618.67 686.75 1621.5 680.869 1625.56 676.001C1629.62 671.134 1634.48 667.078 1640.57 664.239C1646.65 661.4 1653.55 659.98 1661.66 659.778C1664.29 659.778 1667.13 660.183 1670.38 660.589C1673.42 661.197 1676.46 662.211 1679.71 663.428C1682.75 664.645 1685.59 666.47 1688.43 668.498C1691.27 670.526 1693.5 673.162 1695.53 676.204H1695.93V622.26H1713.17V767.058ZM1740.3 662.211H1757.54V676.407H1757.94C1760.78 670.729 1765.24 666.47 1771.33 663.834C1777.41 661.197 1784.1 659.778 1791.4 659.778C1799.51 659.778 1806.41 661.4 1812.49 664.239C1818.58 667.281 1823.45 671.337 1827.5 676.407C1831.56 681.477 1834.6 687.358 1836.63 693.848C1838.65 700.54 1839.67 707.638 1839.67 714.939C1839.67 722.442 1838.65 729.54 1836.63 736.03C1834.6 742.722 1831.76 748.603 1827.7 753.47C1823.65 758.337 1818.78 762.19 1812.7 765.03C1806.61 767.869 1799.72 769.288 1791.81 769.288C1789.17 769.288 1786.33 769.086 1783.09 768.477C1779.84 768.072 1776.8 767.058 1773.76 765.841C1770.51 764.624 1767.68 763.002 1764.84 760.974C1762 758.946 1759.77 756.309 1757.94 753.065H1757.54V807.009H1740.3V662.211ZM1821.42 713.722C1821.42 708.855 1820.61 704.19 1819.39 699.526C1818.17 694.862 1816.14 690.603 1813.51 686.953C1810.87 683.505 1807.42 680.463 1803.37 678.232C1799.31 676.204 1794.45 675.19 1788.97 674.987C1783.09 674.987 1778.22 676.204 1774.17 678.435C1770.11 680.869 1766.66 683.911 1764.23 687.561C1761.59 691.211 1759.77 695.47 1758.55 700.134C1757.33 705.002 1756.93 709.666 1756.93 714.533C1756.93 719.806 1757.54 724.673 1758.75 729.54C1759.97 734.407 1761.79 738.463 1764.43 742.114C1767.07 745.764 1770.51 748.806 1774.77 751.037C1778.83 753.267 1783.9 754.281 1789.98 754.281C1795.86 754.281 1800.73 753.267 1804.79 750.834C1808.84 748.603 1811.89 745.561 1814.52 741.708C1816.96 738.058 1818.58 733.596 1819.79 728.729C1820.81 723.862 1821.42 718.995 1821.42 713.722ZM1952.78 766.652C1949.74 768.477 1945.69 769.288 1940.41 769.288C1935.95 769.288 1932.3 768.072 1929.67 765.638C1927.03 763.204 1925.81 758.946 1925.81 753.267C1920.94 758.946 1915.47 763.204 1909.18 765.638C1902.9 768.072 1896.2 769.288 1888.9 769.288C1884.04 769.288 1879.57 768.883 1875.52 767.869C1871.26 766.855 1867.61 765.232 1864.36 762.799C1861.12 760.365 1858.69 757.323 1856.86 753.673C1855.04 750.023 1854.22 745.358 1854.22 740.086C1854.22 734.204 1855.24 729.337 1857.27 725.484C1859.29 721.834 1861.93 718.792 1865.18 716.358C1868.42 713.925 1872.27 712.099 1876.53 710.883C1880.79 709.666 1885.25 708.652 1889.71 707.841C1894.38 707.03 1898.84 706.218 1903.1 705.813C1907.36 705.407 1911.21 704.596 1914.46 703.785C1917.7 702.974 1920.13 701.554 1922.16 699.932C1923.99 698.309 1925 695.673 1925 692.428C1925 688.778 1924.19 685.736 1922.77 683.302C1921.35 681.071 1919.53 679.246 1917.29 678.029C1915.06 676.813 1912.63 676.001 1909.79 675.596C1906.95 675.19 1904.32 674.987 1901.68 674.987C1894.38 674.987 1888.29 676.407 1883.43 679.246C1878.56 682.085 1875.92 687.155 1875.52 694.862H1858.28C1858.48 688.372 1859.9 682.897 1862.34 678.435C1864.77 673.973 1868.01 670.526 1872.07 667.687C1876.13 664.848 1880.79 663.022 1886.06 661.603C1891.34 660.386 1896.81 659.778 1902.69 659.778C1907.36 659.778 1912.02 660.183 1916.69 660.792C1921.35 661.603 1925.61 663.022 1929.46 665.05C1933.11 667.078 1936.15 670.12 1938.59 673.771C1940.82 677.624 1942.04 682.491 1942.04 688.575V742.519C1942.04 746.575 1942.24 749.617 1942.64 751.442C1943.05 753.47 1944.67 754.281 1947.51 754.281C1948.93 754.281 1950.76 754.079 1952.78 753.267V766.652ZM1924.8 712.911C1922.57 714.533 1919.73 715.75 1916.28 716.561C1912.63 717.372 1908.98 717.981 1905.13 718.386C1901.27 718.792 1897.42 719.4 1893.57 720.009C1889.51 720.617 1886.06 721.631 1883.02 722.848C1879.78 724.267 1877.34 726.295 1875.32 728.729C1873.29 731.162 1872.48 734.61 1872.48 738.869C1872.48 741.708 1872.88 744.141 1874.1 746.169C1875.32 748.197 1876.73 749.617 1878.56 750.834C1880.39 752.051 1882.62 753.065 1885.05 753.47C1887.48 754.079 1890.12 754.281 1892.76 754.281C1898.43 754.281 1903.3 753.673 1907.36 752.051C1911.41 750.428 1914.66 748.603 1917.29 746.169C1919.73 743.736 1921.55 741.302 1922.97 738.463C1924.19 735.624 1924.8 732.988 1924.8 730.554V712.911ZM2010 780.848C2007.97 786.121 2005.94 790.379 2003.91 793.827C2001.88 797.477 1999.86 800.316 1997.42 802.547C1994.99 804.778 1992.55 806.4 1989.72 807.414C1986.88 808.428 1983.43 808.834 1979.58 808.834C1977.55 808.834 1975.52 808.834 1973.49 808.428C1971.46 808.226 1969.44 807.82 1967.61 807.009V791.191C1969.23 791.799 1970.86 792.407 1972.48 792.813C1974.1 793.421 1975.93 793.827 1977.75 793.624C1981.2 793.624 1984.04 792.813 1986.27 791.191C1988.3 789.568 1990.32 787.337 1991.95 784.093L1999.04 766.449L1957.47 662.211H1976.94L2007.56 747.995H2007.97L2037.37 662.211H2055.62L2010 780.848Z" fill="#41415A"/>
</svg>
