<svg xmlns="http://www.w3.org/2000/svg" width="850" height="388" viewBox="0 0 850 388" fill="none"><g clip-path="url(#clip0_1584_774)"><path d="M850 375.5C850 382.404 659.721 388 425 388C190.279 388 0 382.404 0 375.5C0 368.596 190.279 363 425 363C659.721 363 850 368.596 850 375.5Z" fill="#F0F0F0"/><path d="M594.363 29.3852C595.209 26.7565 598.026 25.3111 600.654 26.1569L805.029 91.9114C807.658 92.7572 809.103 95.5738 808.258 98.2025L732.478 333.735C731.633 336.364 728.816 337.809 726.187 336.964L521.812 271.209C519.184 270.363 517.738 267.547 518.584 264.918L594.363 29.3852Z" fill="#FFD3A0"/><path d="M589.31 27.7597C590.156 25.131 592.973 23.6856 595.602 24.5314L799.977 90.2859C802.605 91.1317 804.051 93.9483 803.205 96.577L727.426 332.11C726.58 334.739 723.763 336.184 721.135 335.338L516.76 269.584C514.131 268.738 512.686 265.921 513.531 263.293L589.31 27.7597Z" fill="#FFF3B8"/><path d="M600.312 63.2844L598.219 64.3513C597.733 64.5993 597.535 65.1916 597.775 65.6819L601.591 73.4761C601.837 73.9778 602.446 74.181 602.944 73.9272L617.402 66.5558C617.896 66.3041 618.091 65.6986 617.836 65.206L616.768 63.138C616.516 62.6492 615.916 62.4561 615.425 62.706L604.998 68.0222C604.508 68.2721 603.908 68.0791 603.656 67.5902L601.655 63.7164C601.402 63.2275 600.802 63.0345 600.312 63.2844Z" fill="#8DC69D"/><path d="M592.726 86.863L590.633 87.9299C590.147 88.1779 589.949 88.7702 590.19 89.2605L594.005 97.0547C594.251 97.5564 594.86 97.7596 595.358 97.5059L609.816 90.1345C610.31 89.8827 610.505 89.2772 610.25 88.7847L609.182 86.7167C608.93 86.2278 608.33 86.0347 607.839 86.2847L597.412 91.6008C596.922 91.8507 596.322 91.6577 596.07 91.1688L594.069 87.295C593.816 86.8062 593.216 86.6131 592.726 86.863Z" fill="#8DC69D"/><path d="M585.14 110.442L583.047 111.509C582.561 111.757 582.364 112.349 582.604 112.84L586.419 120.634C586.665 121.135 587.274 121.339 587.772 121.085L602.23 113.714C602.724 113.462 602.919 112.856 602.664 112.364L601.596 110.296C601.344 109.807 600.744 109.614 600.253 109.864L589.826 115.18C589.336 115.43 588.736 115.237 588.484 114.748L586.483 110.874C586.23 110.385 585.63 110.192 585.14 110.442Z" fill="#8DC69D"/><path d="M577.554 134.021L575.461 135.088C574.975 135.336 574.777 135.928 575.017 136.419L578.833 144.213C579.079 144.715 579.688 144.918 580.185 144.664L594.644 137.293C595.137 137.041 595.332 136.435 595.078 135.943L594.01 133.875C593.757 133.386 593.157 133.193 592.667 133.443L582.24 138.759C581.75 139.009 581.15 138.816 580.897 138.327L578.896 134.453C578.644 133.964 578.044 133.771 577.554 134.021Z" fill="#8DC69D"/><path d="M569.967 157.6L567.875 158.667C567.388 158.915 567.191 159.507 567.431 159.997L571.247 167.791C571.492 168.293 572.101 168.496 572.599 168.243L587.057 160.871C587.551 160.619 587.746 160.014 587.491 159.521L586.423 157.453C586.171 156.965 585.571 156.772 585.081 157.021L574.653 162.338C574.163 162.588 573.563 162.395 573.311 161.906L571.31 158.032C571.057 157.543 570.457 157.35 569.967 157.6Z" fill="#8DC69D"/><path d="M562.381 181.179L560.289 182.246C559.802 182.494 559.605 183.086 559.845 183.576L563.661 191.371C563.906 191.872 564.515 192.076 565.013 191.822L579.471 184.45C579.965 184.199 580.16 183.593 579.906 183.101L578.837 181.033C578.585 180.544 577.985 180.351 577.495 180.601L567.068 185.917C566.577 186.167 565.977 185.974 565.725 185.485L563.724 181.611C563.472 181.122 562.872 180.929 562.381 181.179Z" fill="#8DC69D"/><path d="M554.795 204.759L552.702 205.825C552.216 206.073 552.018 206.666 552.258 207.156L556.074 214.95C556.32 215.452 556.929 215.655 557.427 215.401L571.885 208.03C572.379 207.778 572.573 207.173 572.319 206.68L571.251 204.612C570.998 204.123 570.398 203.93 569.908 204.18L559.481 209.496C558.991 209.746 558.391 209.553 558.138 209.064L556.138 205.191C555.885 204.702 555.285 204.509 554.795 204.759Z" fill="#8DC69D"/><path d="M547.209 228.337L545.116 229.404C544.63 229.652 544.432 230.244 544.672 230.735L548.488 238.529C548.734 239.031 549.343 239.234 549.841 238.98L564.299 231.609C564.793 231.357 564.988 230.751 564.733 230.259L563.665 228.191C563.413 227.702 562.813 227.509 562.322 227.759L551.895 233.075C551.405 233.325 550.805 233.132 550.552 232.643L548.552 228.769C548.299 228.28 547.699 228.087 547.209 228.337Z" fill="#8DC69D"/><path d="M622.83 66.4522C623.169 65.4007 624.295 64.8226 625.347 65.1609L772.276 112.433C773.327 112.771 773.905 113.898 773.567 114.949L769.915 126.3C769.577 127.351 768.45 127.929 767.399 127.591L620.47 80.3188C619.418 79.9805 618.84 78.8538 619.179 77.8023L622.83 66.4522Z" fill="#FFD3A0"/><path d="M615.244 90.0313C615.582 88.9798 616.709 88.4017 617.76 88.74L764.689 136.012C765.741 136.35 766.319 137.477 765.981 138.529L762.329 149.879C761.991 150.93 760.864 151.508 759.812 151.17L612.884 103.898C611.832 103.56 611.254 102.433 611.592 101.381L615.244 90.0313Z" fill="#FFD3A0"/><path d="M607.658 113.61C607.996 112.559 609.123 111.981 610.174 112.319L757.103 159.591C758.155 159.93 758.733 161.056 758.395 162.108L754.743 173.458C754.405 174.509 753.278 175.087 752.226 174.749L605.298 127.477C604.246 127.139 603.668 126.012 604.006 124.961L607.658 113.61Z" fill="#FFD3A0"/><path d="M600.072 137.19C600.41 136.138 601.536 135.56 602.588 135.898L749.517 183.17C750.568 183.509 751.146 184.635 750.808 185.687L747.156 197.037C746.818 198.088 745.692 198.666 744.64 198.328L597.711 151.056C596.66 150.718 596.082 149.591 596.42 148.54L600.072 137.19Z" fill="#FFD3A0"/><path d="M592.486 160.768C592.824 159.717 593.951 159.139 595.002 159.477L741.931 206.749C742.982 207.087 743.561 208.214 743.222 209.265L739.571 220.615C739.232 221.667 738.106 222.245 737.054 221.907L590.125 174.635C589.074 174.296 588.496 173.17 588.834 172.118L592.486 160.768Z" fill="#FFD3A0"/><path d="M584.899 184.347C585.237 183.296 586.364 182.718 587.416 183.056L734.344 230.328C735.396 230.666 735.974 231.793 735.636 232.844L731.984 244.195C731.646 245.246 730.519 245.824 729.468 245.486L582.539 198.214C581.487 197.875 580.909 196.749 581.247 195.697L584.899 184.347Z" fill="#FFD3A0"/><path d="M577.313 207.926C577.652 206.875 578.778 206.297 579.83 206.635L726.759 253.907C727.81 254.245 728.388 255.372 728.05 256.424L724.398 267.774C724.06 268.825 722.933 269.403 721.882 269.065L574.953 221.793C573.901 221.455 573.323 220.328 573.662 219.276L577.313 207.926Z" fill="#FFD3A0"/><path d="M569.727 231.505C570.066 230.453 571.192 229.875 572.244 230.214L719.173 277.486C720.224 277.824 720.802 278.951 720.464 280.002L716.812 291.352C716.474 292.404 715.347 292.982 714.296 292.644L567.367 245.371C566.315 245.033 565.737 243.907 566.076 242.855L569.727 231.505Z" fill="#FFD3A0"/><path d="M678.027 361.877C678.027 361.842 678.054 361.813 678.089 361.81C699.866 360.087 717 341.908 717 319.736C717 296.425 698.061 277.528 674.7 277.528C671.317 277.528 668.026 277.924 664.873 278.673C661.561 279.459 658.026 277.138 657.523 273.778C653.987 250.135 633.552 232 608.873 232C595.614 232 583.58 237.234 574.733 245.745C572.833 247.573 569.839 247.788 567.643 246.328C561.689 242.369 554.539 240.062 546.848 240.062C527.718 240.062 511.929 254.338 509.597 272.795C509.269 275.394 507.164 277.5 504.555 277.79C483.427 280.144 467 298.025 467 319.736C467 342.728 485.424 361.426 508.345 361.933C508.347 361.933 508.35 361.935 508.35 361.938C508.35 361.941 508.352 361.943 508.355 361.943H677.96C677.997 361.943 678.027 361.914 678.027 361.877Z" fill="white"/><path fill-rule="evenodd" clip-rule="evenodd" d="M677.694 356.826C696.901 355.306 712 339.27 712 319.736C712 299.197 695.31 282.528 674.7 282.528C671.708 282.528 668.805 282.878 666.027 283.537C659.955 284.979 653.527 280.863 652.578 274.518C649.404 253.295 631.048 237 608.873 237C596.956 237 586.151 241.699 578.2 249.348C574.545 252.865 568.947 253.2 564.874 250.491C559.716 247.062 553.524 245.062 546.848 245.062C530.26 245.062 516.577 257.44 514.558 273.422C513.944 278.277 510.048 282.209 505.109 282.76C486.475 284.835 472 300.61 472 319.736C472 339.993 488.236 356.487 508.455 356.934C508.527 356.936 508.599 356.939 508.67 356.944H676.937C677.183 356.886 677.436 356.846 677.694 356.826ZM678.089 361.81C678.054 361.813 678.027 361.842 678.027 361.877C678.027 361.914 677.997 361.943 677.96 361.943H508.355C508.352 361.943 508.35 361.941 508.35 361.938C508.35 361.935 508.347 361.933 508.345 361.933C485.424 361.426 467 342.728 467 319.736C467 298.025 483.427 280.144 504.555 277.79C507.164 277.5 509.269 275.394 509.597 272.795C511.929 254.338 527.718 240.062 546.848 240.062C554.539 240.062 561.689 242.369 567.643 246.328C569.839 247.788 572.833 247.573 574.733 245.745C583.58 237.234 595.614 232 608.873 232C633.552 232 653.987 250.135 657.523 273.778C658.026 277.138 661.561 279.459 664.873 278.673C668.026 277.924 671.317 277.528 674.7 277.528C698.061 277.528 717 296.425 717 319.736C717 341.908 699.866 360.087 678.089 361.81Z" fill="#B8BAFF"/><path d="M36.119 217.824C36.033 212.302 40.44 207.756 45.9622 207.67L336.07 203.156C341.592 203.07 346.138 207.477 346.224 212.999L348.511 359.981C348.597 365.503 344.19 370.05 338.668 370.136L48.5602 374.649C43.0381 374.735 38.4918 370.328 38.4059 364.806L36.119 217.824Z" fill="#0007FF"/><path d="M30.1556 217.917C30.0697 212.395 34.4766 207.848 39.9988 207.762L330.107 203.249C335.629 203.163 340.175 207.57 340.261 213.092L342.548 360.074C342.634 365.596 338.227 370.142 332.705 370.228L42.5969 374.742C37.0747 374.828 32.5284 370.421 32.4425 364.899L30.1556 217.917Z" fill="#4044FF"/><path d="M41.6572 343.739L196.71 341.326L197.081 365.181L42.0284 367.593L41.6572 343.739Z" fill="#D5D6FF"/><path d="M39.7275 219.697L83.8579 219.01L84.2291 242.864L40.0987 243.551L39.7275 219.697Z" fill="#D5D6FF"/><path d="M95.7847 218.824L176.889 217.563L177.26 241.417L96.1558 242.679L95.7847 218.824Z" fill="#D5D6FF"/><path d="M87.436 218.954L92.2069 218.88L92.578 242.734L87.8072 242.809L87.436 218.954Z" fill="#D5D6FF"/><path d="M212.547 324.375C212.52 322.628 212.848 321.272 213.544 320.306C214.24 319.339 215.071 318.849 216.049 318.834C217.016 318.819 217.862 319.283 218.587 320.227C219.301 321.171 219.683 322.517 219.71 324.264C219.738 326.011 219.397 327.368 218.713 328.334C218.018 329.3 217.187 329.791 216.22 329.806C215.241 329.821 214.395 329.356 213.67 328.412C212.945 327.468 212.574 326.123 212.547 324.375ZM223.286 324.208C223.246 321.599 222.514 319.514 221.103 317.939C219.681 316.365 217.979 315.588 215.999 315.619C214.007 315.65 212.331 316.48 210.958 318.097C209.585 319.715 208.919 321.822 208.96 324.431C209 327.04 209.732 329.138 211.154 330.712C212.577 332.297 214.278 333.063 216.27 333.032C218.25 333.001 219.927 332.183 221.299 330.554C222.661 328.936 223.327 326.817 223.286 324.208Z" fill="#D5D6FF"/><path d="M228.062 324.134C228.034 322.387 228.363 321.03 229.058 320.064C229.754 319.098 230.585 318.607 231.564 318.592C232.53 318.577 233.377 319.042 234.102 319.986C234.816 320.93 235.198 322.275 235.225 324.023C235.252 325.77 234.912 327.126 234.228 328.092C233.532 329.059 232.701 329.549 231.734 329.564C230.756 329.579 229.91 329.115 229.185 328.171C228.459 327.227 228.089 325.881 228.062 324.134ZM238.801 323.967C238.76 321.358 238.029 319.272 236.618 317.698C235.195 316.124 233.494 315.347 231.514 315.377C229.522 315.408 227.846 316.238 226.473 317.856C225.1 319.473 224.434 321.581 224.474 324.19C224.515 326.799 225.246 328.896 226.669 330.47C228.092 332.056 229.793 332.822 231.785 332.791C233.765 332.76 235.441 331.941 236.814 330.312C238.175 328.695 238.841 326.576 238.801 323.967Z" fill="#D5D6FF"/><path d="M250.128 315.204L247.147 315.251L240.325 337.306L243.307 337.26L250.128 315.204Z" fill="#D5D6FF"/><path d="M255.154 323.712C255.127 321.965 255.455 320.609 256.151 319.643C256.846 318.676 257.678 318.186 258.656 318.171C259.623 318.156 260.469 318.62 261.194 319.564C261.908 320.508 262.29 321.854 262.317 323.601C262.344 325.348 262.004 326.705 261.32 327.671C260.625 328.637 259.793 329.128 258.827 329.143C257.848 329.158 257.002 328.693 256.277 327.749C255.552 326.805 255.181 325.46 255.154 323.712ZM265.893 323.545C265.852 320.936 265.121 318.851 263.71 317.276C262.287 315.703 260.586 314.925 258.606 314.956C256.614 314.987 254.938 315.817 253.565 317.434C252.192 319.052 251.526 321.159 251.566 323.768C251.607 326.377 252.339 328.475 253.761 330.049C255.184 331.634 256.885 332.4 258.877 332.369C260.857 332.338 262.534 331.52 263.906 329.891C265.268 328.274 265.934 326.154 265.893 323.545Z" fill="#D5D6FF"/><path d="M270.669 323.471C270.641 321.724 270.97 320.367 271.665 319.401C272.361 318.435 273.192 317.944 274.171 317.929C275.137 317.914 275.983 318.379 276.709 319.323C277.422 320.267 277.805 321.612 277.832 323.36C277.859 325.107 277.519 326.463 276.835 327.429C276.139 328.396 275.308 328.886 274.341 328.901C273.363 328.916 272.517 328.452 271.791 327.508C271.066 326.564 270.696 325.218 270.669 323.471ZM281.408 323.304C281.367 320.695 280.636 318.609 279.225 317.035C277.802 315.461 276.101 314.684 274.121 314.715C272.129 314.746 270.452 315.575 269.08 317.193C267.707 318.81 267.04 320.918 267.081 323.527C267.122 326.136 267.853 328.233 269.276 329.807C270.699 331.393 272.4 332.159 274.392 332.128C276.372 332.097 278.048 331.279 279.421 329.649C280.782 328.032 281.448 325.913 281.408 323.304Z" fill="#D5D6FF"/><path d="M48.0901 296.61L50.8629 300.542L53.9425 297.986L50.9725 294.485L55.3353 293.153L54.0335 289.422L49.6772 291.162L50.01 286.345L45.8314 286.41L46.3343 291.214L41.9259 289.61L40.7205 293.381L45.1225 294.576L42.2629 298.168L45.4206 300.627L48.0901 296.61Z" fill="#D5D6FF"/><path d="M64.8044 296.349L67.5772 300.282L70.6568 297.726L67.6868 294.225L72.0496 292.893L70.7478 289.162L66.3914 290.901L66.7243 286.085L62.5457 286.15L63.0486 290.954L58.6402 289.35L57.4348 293.12L61.8368 294.316L58.9772 297.908L62.1349 300.367L64.8044 296.349Z" fill="#D5D6FF"/><path d="M81.5187 296.089L84.2915 300.022L87.3711 297.466L84.4011 293.965L88.7639 292.633L87.4621 288.902L83.1057 290.641L83.4385 285.825L79.26 285.89L79.7629 290.693L75.3545 289.09L74.149 292.86L78.5511 294.056L75.6915 297.648L78.8491 300.107L81.5187 296.089Z" fill="#D5D6FF"/><path d="M98.2329 295.829L101.006 299.762L104.085 297.206L101.115 293.705L105.478 292.373L104.176 288.642L99.82 290.381L100.153 285.565L95.9743 285.63L96.4771 290.433L92.0687 288.83L90.8633 292.6L95.2654 293.796L92.4058 297.388L95.5634 299.847L98.2329 295.829Z" fill="#D5D6FF"/><path d="M123.508 295.436L126.281 299.369L129.361 296.813L126.391 293.312L130.753 291.98L129.452 288.249L125.095 289.988L125.428 285.171L121.25 285.236L121.752 290.04L117.344 288.437L116.139 292.207L120.541 293.403L117.681 296.995L120.839 299.453L123.508 295.436Z" fill="#D5D6FF"/><path d="M140.222 295.176L142.995 299.109L146.075 296.553L143.105 293.052L147.468 291.72L146.166 287.988L141.81 289.728L142.142 284.911L137.964 284.976L138.467 289.78L134.058 288.177L132.853 291.947L137.255 293.143L134.395 296.735L137.553 299.193L140.222 295.176Z" fill="#D5D6FF"/><path d="M156.937 294.916L159.71 298.849L162.789 296.293L159.819 292.792L164.182 291.46L162.88 287.728L158.524 289.468L158.857 284.651L154.678 284.716L155.181 289.52L150.773 287.917L149.567 291.687L153.969 292.883L151.11 296.475L154.267 298.933L156.937 294.916Z" fill="#D5D6FF"/><path d="M173.651 294.656L176.424 298.588L179.504 296.033L176.534 292.531L180.896 291.199L179.595 287.468L175.238 289.208L175.571 284.391L171.392 284.456L171.895 289.26L167.487 287.657L166.281 291.427L170.684 292.622L167.824 296.215L170.982 298.673L173.651 294.656Z" fill="#D5D6FF"/><path d="M198.926 294.263L201.699 298.195L204.779 295.64L201.809 292.138L206.172 290.806L204.87 287.075L200.513 288.815L200.846 283.998L196.668 284.063L197.171 288.867L192.762 287.263L191.557 291.034L195.959 292.229L193.099 295.821L196.257 298.28L198.926 294.263Z" fill="#D5D6FF"/><path d="M215.641 294.003L218.413 297.935L221.493 295.379L218.523 291.878L222.886 290.546L221.584 286.815L217.228 288.555L217.56 283.738L213.382 283.803L213.885 288.607L209.476 287.003L208.271 290.774L212.673 291.969L209.813 295.561L212.971 298.02L215.641 294.003Z" fill="#D5D6FF"/><path d="M232.355 293.743L235.128 297.675L238.207 295.119L235.237 291.618L239.6 290.286L238.298 286.555L233.942 288.295L234.275 283.478L230.096 283.543L230.599 288.347L226.191 286.743L224.985 290.514L229.387 291.709L226.528 295.301L229.685 297.76L232.355 293.743Z" fill="#D5D6FF"/><path d="M249.069 293.482L251.842 297.415L254.922 294.859L251.952 291.358L256.314 290.026L255.013 286.295L250.656 288.034L250.989 283.218L246.81 283.283L247.313 288.087L242.905 286.483L241.7 290.253L246.102 291.449L243.242 295.041L246.4 297.5L249.069 293.482Z" fill="#D5D6FF"/><path d="M274.344 293.089L277.117 297.022L280.197 294.466L277.227 290.965L281.59 289.633L280.288 285.902L275.931 287.641L276.264 282.824L272.086 282.889L272.589 287.693L268.18 286.09L266.975 289.86L271.377 291.056L268.517 294.648L271.675 297.106L274.344 293.089Z" fill="#D5D6FF"/><path d="M291.059 292.829L293.832 296.762L296.911 294.206L293.941 290.705L298.304 289.373L297.002 285.642L292.646 287.381L292.979 282.564L288.8 282.629L289.303 287.433L284.895 285.83L283.689 289.6L288.091 290.796L285.232 294.388L288.389 296.846L291.059 292.829Z" fill="#D5D6FF"/><path d="M307.773 292.569L310.546 296.502L313.625 293.946L310.655 290.445L315.018 289.113L313.716 285.381L309.36 287.121L309.693 282.304L305.514 282.369L306.017 287.173L301.609 285.57L300.403 289.34L304.805 290.536L301.946 294.128L305.103 296.586L307.773 292.569Z" fill="#D5D6FF"/><path d="M324.487 292.309L327.26 296.242L330.34 293.686L327.37 290.185L331.732 288.853L330.431 285.121L326.074 286.861L326.407 282.044L322.229 282.109L322.731 286.913L318.323 285.31L317.118 289.08L321.52 290.276L318.66 293.868L321.818 296.326L324.487 292.309Z" fill="#D5D6FF"/><path d="M372.277 -0.711014C373.863 -1.30223 388.399 -1.28618 389.974 -0.665963L555.524 64.5432C558.078 65.5493 559.788 68.0157 559.846 70.7576C562.702 206.507 526.605 293.656 391.312 375.117C389.034 376.488 373.294 376.399 371.103 374.893C239.265 284.282 198.625 198.526 193.007 71.1658C192.877 68.2204 194.672 65.5065 197.438 64.4754L372.277 -0.711014Z" fill="#B8BAFF"/><path d="M372.277 -0.711014C373.863 -1.30223 375.612 -1.28618 377.186 -0.665963L542.736 64.5432C545.291 65.5493 547.001 68.0157 547.058 70.7576C549.915 206.507 513.818 293.656 378.525 375.117C376.247 376.488 373.294 376.399 371.103 374.893C239.265 284.282 198.625 198.526 193.007 71.1658C192.877 68.2204 194.672 65.5065 197.438 64.4754L372.277 -0.711014Z" fill="white"/><path d="M371.917 29.9084C373.239 29.4134 374.697 29.4268 376.01 29.9461L514.069 84.5449C516.199 85.3874 517.625 87.4524 517.673 89.7482C520.055 203.41 489.952 276.378 377.127 344.584C375.227 345.733 372.764 345.658 370.937 344.397C260.994 268.53 227.102 196.727 222.417 90.0899C222.308 87.6238 223.806 85.3515 226.112 84.4882L371.917 29.9084Z" fill="#D6D6D6"/><path fill-rule="evenodd" clip-rule="evenodd" d="M513.333 86.4048L375.275 31.8059C374.422 31.4688 373.476 31.4601 372.618 31.7815L226.813 86.3613C225.322 86.9193 224.344 88.3971 224.415 90.0022C226.749 143.125 236.349 187.4 258.95 227.806C281.556 268.22 317.261 304.928 372.073 342.751C373.253 343.565 374.866 343.614 376.092 342.873C432.303 308.892 467.719 273.839 488.828 233.289C509.944 192.728 516.861 146.448 515.673 89.7901C515.642 88.2926 514.708 86.9485 513.333 86.4048ZM376.01 29.9461C374.697 29.4268 373.239 29.4134 371.917 29.9084L226.112 84.4882C223.806 85.3515 222.308 87.6238 222.417 90.0899C227.102 196.727 260.994 268.53 370.937 344.397C372.764 345.658 375.227 345.733 377.127 344.584C489.952 276.378 520.055 203.41 517.673 89.7482C517.625 87.4524 516.199 85.3874 514.069 84.5449L376.01 29.9461Z" fill="#DFDFDF"/><path d="M378.525 375.117C513.818 293.656 549.915 206.507 547.058 70.7576C547.001 68.0157 545.291 65.5493 542.736 64.5432L483.595 41.2477L328.567 343.282C336.017 349.313 343.846 355.341 352.072 361.381C358.194 365.877 364.535 370.379 371.103 374.893C373.294 376.399 376.247 376.488 378.525 375.117Z" fill="url(#paint0_linear_1584_774)"/><path d="M197.438 64.4754C194.672 65.5065 192.877 68.2204 193.007 71.1658C195.974 138.442 208.714 194.109 239.507 245.015L284.857 31.8822L197.438 64.4754Z" fill="url(#paint1_linear_1584_774)"/><path d="M372.277 -0.711014C373.863 -1.30223 375.612 -1.28618 377.186 -0.665963L397.599 7.37466L298.792 317.265C275.524 295.195 256.953 272.827 242.268 249.491L328.567 15.5856L372.277 -0.711014Z" fill="url(#paint2_linear_1584_774)"/><path d="M311.923 329.25L424.453 17.9521L403.993 9.89311L302.887 321.101C305.826 323.821 308.838 326.537 311.923 329.25Z" fill="url(#paint3_linear_1584_774)"/><g opacity="0.8"><path d="M239.507 245.016L284.857 31.8826L328.567 15.5859L242.268 249.491C241.332 248.004 240.412 246.512 239.507 245.016Z" fill="url(#paint4_linear_1584_774)"/><path d="M311.923 329.25L424.453 17.9525L483.595 41.248L328.567 343.282C322.794 338.608 317.249 333.933 311.923 329.25Z" fill="url(#paint5_linear_1584_774)"/><path d="M403.993 9.89345L302.887 321.101C301.506 319.823 300.141 318.545 298.792 317.265L397.599 7.375L403.993 9.89345Z" fill="url(#paint6_linear_1584_774)"/></g><path d="M327.384 273.862L330.939 274.928C330.702 275.935 330.346 276.765 329.813 277.417C329.28 278.068 328.688 278.601 327.917 278.898C327.147 279.253 326.199 279.431 325.014 279.431C323.592 279.431 322.467 279.253 321.519 278.838C320.63 278.424 319.86 277.713 319.208 276.646C318.557 275.639 318.201 274.277 318.201 272.677C318.201 270.544 318.794 268.885 319.919 267.7C321.045 266.515 322.704 265.982 324.777 265.982C326.436 265.982 327.68 266.338 328.628 266.989C329.576 267.641 330.287 268.648 330.702 270.07L327.147 270.84C327.029 270.426 326.91 270.129 326.732 269.952C326.496 269.655 326.259 269.418 325.903 269.241C325.548 269.063 325.192 269.004 324.837 269.004C323.948 269.004 323.237 269.359 322.763 270.129C322.408 270.663 322.23 271.551 322.23 272.677C322.23 274.099 322.467 275.106 322.882 275.639C323.296 276.172 323.948 276.469 324.718 276.469C325.488 276.469 326.081 276.232 326.436 275.817C326.91 275.284 327.206 274.691 327.384 273.862Z" fill="#225E63"/><path d="M332.361 272.677C332.361 270.544 332.953 268.885 334.138 267.7C335.323 266.515 336.982 265.923 339.115 265.923C341.307 265.923 342.966 266.515 344.151 267.641C345.336 268.826 345.928 270.425 345.928 272.558C345.928 274.099 345.691 275.343 345.158 276.291C344.625 277.239 343.914 278.009 342.907 278.542C341.959 279.075 340.714 279.372 339.293 279.372C337.811 279.372 336.626 279.135 335.619 278.661C334.671 278.187 333.901 277.476 333.25 276.409C332.598 275.343 332.361 274.217 332.361 272.677ZM336.39 272.677C336.39 273.98 336.626 274.928 337.1 275.521C337.574 276.113 338.226 276.409 339.115 276.409C340.003 276.409 340.655 276.113 341.129 275.58C341.603 274.987 341.84 273.98 341.84 272.558C341.84 271.314 341.603 270.425 341.07 269.892C340.596 269.3 339.885 269.063 339.056 269.063C338.226 269.063 337.574 269.359 337.1 269.952C336.626 270.426 336.39 271.373 336.39 272.677Z" fill="#225E63"/><path d="M348.002 266.16H353.275L355.289 274.099L357.303 266.16H362.576V279.194H359.258V269.241L356.711 279.194H353.749L351.201 269.241V279.194H347.883V266.16H348.002Z" fill="#225E63"/><path d="M365.183 266.16H371.877C373.358 266.16 374.425 266.516 375.136 267.227C375.847 267.938 376.202 268.886 376.202 270.189C376.202 271.492 375.788 272.559 375.017 273.27C374.247 274.04 373.003 274.395 371.403 274.395H369.211V279.254H365.183V266.16ZM369.211 271.729H370.218C370.989 271.729 371.522 271.611 371.877 271.315C372.174 271.018 372.351 270.722 372.351 270.308C372.351 269.893 372.233 269.537 371.937 269.241C371.64 268.945 371.166 268.826 370.396 268.826H369.271V271.729H369.211Z" fill="#225E63"/><path d="M378.335 266.16H382.364V275.995H388.644V279.194H378.335V266.16Z" fill="#225E63"/><path d="M390.658 266.16H394.687V279.194H390.658V266.16Z" fill="#225E63"/><path d="M405.588 277.002H401.026L400.375 279.135H396.287L401.204 266.101H405.588L410.505 279.135H406.299L405.588 277.002ZM404.759 274.217L403.337 269.537L401.915 274.217H404.759Z" fill="#225E63"/><path d="M411.75 266.16H415.482L420.399 273.388V266.16H424.191V279.194H420.399L415.541 272.026V279.194H411.75V266.16Z" fill="#225E63"/><path d="M425.968 266.16H438.232V269.36H434.144V279.194H430.115V269.36H426.027V266.16H425.968Z" fill="#225E63"/><path d="M457.265 168.82L468.937 165.146L465.145 156.733C462.36 160.229 459.576 164.732 457.265 168.82ZM453.296 130.369L430.427 79.4185L263 88.8977L309.389 215.446L398.672 187.304C392.984 179.128 390.91 169.412 397.487 164.672C404.833 159.34 415.912 165.502 422.962 174.211C429.775 162.836 448.912 136.353 453.296 130.369Z" fill="#225E63"/><path d="M425.211 116.239C432.202 116.239 437.89 110.907 437.89 104.271C437.89 97.6358 432.202 92.3037 425.211 92.3037C418.22 92.3037 412.533 97.6358 412.533 104.271C412.533 110.847 418.22 116.239 425.211 116.239ZM414.843 121.393H435.579V175.603H414.843V121.393Z" fill="#FEFEFE"/><path d="M404.594 137.212C404.771 137.271 404.89 137.212 404.89 137.034V123.289C404.89 123.111 404.771 122.934 404.594 122.815C404.594 122.815 401.868 121.038 393.574 120.564C393.159 120.327 385.872 120.268 383.917 120.564C353.702 122.993 352.576 144.854 352.576 145.802V151.134C352.576 151.786 352.576 174.122 383.917 176.077C386.998 176.314 392.981 176.077 393.574 176.077C400.802 176.077 405.778 173.885 405.778 173.885C405.956 173.825 406.075 173.648 406.075 173.47V160.614C406.075 160.436 405.956 160.377 405.838 160.495C405.838 160.495 403.586 162.273 393.752 163.28C390.967 163.576 389.604 163.457 388.597 163.28C374.615 160.91 373.964 150.72 373.964 150.72C373.964 150.542 373.904 150.246 373.904 150.127V146.217C373.904 146.039 373.904 145.743 373.964 145.625C373.964 145.625 374.912 134.664 388.597 133.479H393.752C399.735 134.25 404.594 137.212 404.594 137.212Z" fill="#FEFEFE"/><path d="M294.99 175.425C294.99 175.603 295.109 175.721 295.286 175.721H315.489C315.667 175.721 315.785 175.603 315.785 175.425V159.666C315.785 159.488 315.904 159.37 316.082 159.37C316.082 159.37 348.37 161.68 348.37 140.056C348.37 122.934 328.108 121.097 321.473 121.393C321.354 121.393 295.286 121.393 295.286 121.393C295.109 121.393 294.99 121.512 294.99 121.69V175.425ZM315.43 147.343V133.183H320.406C320.406 133.183 327.575 133.479 328.168 138.397C328.286 138.752 328.286 141.181 328.168 141.3C327.22 147.047 320.999 147.343 320.999 147.343H315.43Z" fill="#FEFEFE"/><path d="M425.806 201.76C427.465 201.76 428.768 201.76 430.901 200.812C438.248 196.961 463.071 136.353 489.258 117.691C489.435 117.572 489.613 117.395 489.732 117.217C489.909 116.98 489.909 116.743 489.909 116.743C489.909 116.743 489.909 115.499 486.058 115.499C462.775 114.847 438.544 163.725 425.806 183.038C425.628 183.275 424.799 183.038 424.799 183.038C424.799 183.038 416.268 172.967 408.862 169.116C408.684 169.057 407.855 168.76 406.966 168.82C406.374 168.82 402.937 169.531 401.338 171.189C399.442 173.204 399.501 174.329 399.501 176.758C399.501 176.936 399.62 177.766 399.857 178.18C401.693 181.38 409.928 192.755 416.742 199.035C417.749 199.805 419.348 201.76 425.806 201.76Z" fill="#2BBC5D"/><path d="M317.787 216.572H337.16C341.011 216.572 344.092 217.105 346.402 218.113C348.772 219.179 350.727 220.66 352.208 222.556C353.748 224.511 354.874 226.762 355.526 229.31C356.237 231.858 356.592 234.583 356.592 237.486C356.592 241.988 356.059 245.484 355.052 247.972C354.045 250.461 352.623 252.534 350.786 254.252C348.95 255.911 346.995 257.037 344.921 257.629C342.077 258.399 339.47 258.755 337.16 258.755H317.787V216.572ZM330.821 226.111V249.157H334.02C336.745 249.157 338.7 248.861 339.826 248.268C340.952 247.676 341.899 246.61 342.551 245.128C343.203 243.647 343.558 241.159 343.558 237.782C343.558 233.279 342.847 230.258 341.366 228.599C339.885 226.94 337.515 226.111 334.079 226.111H330.821Z" fill="#225E63"/><path d="M360.206 244.832L372.648 244.062C372.944 246.077 373.477 247.617 374.306 248.683C375.669 250.401 377.565 251.231 380.053 251.231C381.89 251.231 383.371 250.816 384.378 249.928C385.385 249.039 385.918 248.032 385.918 246.906C385.918 245.84 385.445 244.832 384.497 243.944C383.549 243.055 381.297 242.285 377.802 241.515C372.055 240.211 368.026 238.493 365.538 236.36C363.05 234.228 361.865 231.502 361.865 228.185C361.865 225.992 362.517 223.978 363.761 222.023C365.005 220.068 366.901 218.587 369.448 217.461C371.996 216.335 375.432 215.802 379.816 215.802C385.208 215.802 389.355 216.809 392.139 218.824C394.983 220.838 396.642 224.037 397.175 228.421L384.852 229.132C384.497 227.237 383.845 225.874 382.778 224.985C381.712 224.097 380.29 223.682 378.454 223.682C376.913 223.682 375.788 223.978 375.017 224.63C374.247 225.281 373.892 226.052 373.892 227C373.892 227.651 374.188 228.303 374.84 228.836C375.432 229.369 376.913 229.903 379.224 230.377C384.911 231.621 388.999 232.865 391.488 234.109C393.976 235.353 395.753 236.953 396.879 238.789C398.005 240.626 398.538 242.759 398.538 245.069C398.538 247.795 397.768 250.283 396.286 252.534C394.805 254.845 392.672 256.563 390.006 257.748C387.34 258.933 383.904 259.525 379.816 259.525C372.648 259.525 367.671 258.163 364.886 255.378C362.161 252.594 360.621 249.098 360.206 244.832Z" fill="#225E63"/><path d="M401.855 244.832L414.297 244.062C414.593 246.077 415.126 247.617 415.956 248.683C417.318 250.401 419.214 251.231 421.703 251.231C423.539 251.231 425.02 250.816 426.028 249.928C427.035 249.039 427.568 248.032 427.568 246.906C427.568 245.84 427.094 244.832 426.146 243.944C425.198 243.055 422.947 242.285 419.451 241.515C413.705 240.211 409.676 238.493 407.188 236.36C404.758 234.228 403.514 231.502 403.514 228.185C403.514 225.992 404.166 223.978 405.41 222.023C406.654 220.068 408.55 218.587 411.098 217.461C413.645 216.335 417.081 215.802 421.466 215.802C426.857 215.802 431.004 216.809 433.789 218.824C436.632 220.838 438.291 224.037 438.824 228.421L426.501 229.132C426.146 227.237 425.494 225.874 424.428 224.985C423.361 224.097 421.94 223.682 420.103 223.682C418.563 223.682 417.437 223.978 416.667 224.63C415.897 225.281 415.541 226.052 415.541 227C415.541 227.651 415.837 228.303 416.489 228.836C417.082 229.369 418.563 229.903 420.873 230.377C426.561 231.621 430.649 232.865 433.137 234.109C435.625 235.353 437.403 236.953 438.528 238.789C439.654 240.626 440.187 242.759 440.187 245.069C440.187 247.795 439.417 250.283 437.936 252.534C436.455 254.845 434.322 256.563 431.656 257.748C428.99 258.933 425.554 259.525 421.466 259.525C414.297 259.525 409.32 258.163 406.536 255.378C403.751 252.594 402.211 249.098 401.855 244.832Z" fill="#225E63"/></g><defs><linearGradient id="paint0_linear_1584_774" x1="370.106" y1="-1.14307" x2="370.106" y2="376.087" gradientUnits="userSpaceOnUse"><stop stop-color="#C4C4C4" stop-opacity="0.76"/><stop offset="1" stop-color="#C4C4C4" stop-opacity="0"/></linearGradient><linearGradient id="paint1_linear_1584_774" x1="370.106" y1="-1.14307" x2="370.106" y2="376.087" gradientUnits="userSpaceOnUse"><stop stop-color="#C4C4C4" stop-opacity="0.76"/><stop offset="1" stop-color="#C4C4C4" stop-opacity="0"/></linearGradient><linearGradient id="paint2_linear_1584_774" x1="370.106" y1="-1.14307" x2="370.106" y2="376.087" gradientUnits="userSpaceOnUse"><stop stop-color="#C4C4C4" stop-opacity="0.76"/><stop offset="1" stop-color="#C4C4C4" stop-opacity="0"/></linearGradient><linearGradient id="paint3_linear_1584_774" x1="370.106" y1="-1.14307" x2="370.106" y2="376.087" gradientUnits="userSpaceOnUse"><stop stop-color="#C4C4C4" stop-opacity="0.76"/><stop offset="1" stop-color="#C4C4C4" stop-opacity="0"/></linearGradient><linearGradient id="paint4_linear_1584_774" x1="376.5" y1="-1.14289" x2="376.5" y2="365.218" gradientUnits="userSpaceOnUse"><stop stop-color="white" stop-opacity="0.93"/><stop offset="1" stop-color="#C4C4C4" stop-opacity="0"/></linearGradient><linearGradient id="paint5_linear_1584_774" x1="376.5" y1="-1.14289" x2="376.5" y2="365.218" gradientUnits="userSpaceOnUse"><stop stop-color="white" stop-opacity="0.93"/><stop offset="1" stop-color="#C4C4C4" stop-opacity="0"/></linearGradient><linearGradient id="paint6_linear_1584_774" x1="376.5" y1="-1.14289" x2="376.5" y2="365.218" gradientUnits="userSpaceOnUse"><stop stop-color="white" stop-opacity="0.93"/><stop offset="1" stop-color="#C4C4C4" stop-opacity="0"/></linearGradient><clipPath id="clip0_1584_774"><rect width="850" height="388" fill="white"/></clipPath></defs></svg>